<?xml version="1.0" encoding="utf-8"?>
<!-- Generator: Adobe Illustrator 21.0.0, SVG Export Plug-In . SVG Version: 6.00 Build 0)  -->
<svg version="1.1" id="Capa_1" xmlns="http://www.w3.org/2000/svg" xmlns:xlink="http://www.w3.org/1999/xlink" x="0px" y="0px"
	 viewBox="0 0 22 22" style="enable-background:new 0 0 22 22;" xml:space="preserve">
<style type="text/css">
	.st0{fill:#39B54A;}
	.st1{fill:#FFFFFF;}
</style>
<g>
	<circle class="st0" cx="11" cy="11" r="11"/>
	<path class="st1" d="M15.2,17.1C15.2,17.1,15.3,17.1,15.2,17.1c0.2,0,0.3,0,0.4-0.1l1.4-1.4c0.2-0.2,0.2-0.5,0-0.7l-2.3-2.3
		c-0.2-0.2-0.6-0.3-0.8,0l-1.6,1.6c-0.9-0.4-1.8-1-2.6-1.8c-0.8-0.8-1.4-1.7-1.8-2.6l1.6-1.6c0.2-0.2,0.2-0.6,0-0.8L8,5.9L7.1,5.1
		c-0.2-0.2-0.5-0.2-0.7,0L5,6.5C4.6,8.7,5.7,11.6,8,14c2.1,2.1,4.7,3.2,6.9,3.1C15,17.1,15.1,17.1,15.2,17.1z"/>
</g>
</svg>
